<svg xmlns="http://www.w3.org/2000/svg" viewBox="0 0 1970 1401" width="1970" height="1401">
	<defs>
		<clipPath clipPathUnits="userSpaceOnUse" id="cp1">
			<path d="M0 0L1970 0L1970 1401L0 1401Z" />
		</clipPath>
	</defs>
	<style>
		tspan { white-space:pre }
		.shp0 { fill: #c5c5c7 } 
		.shp1 { fill: #8a151f } 
		.shp2 { fill: #e7c020 } 
		.shp3 { fill: #d0d019 } 
		.shp4 { fill: #f3efff } 
		.shp5 { fill: #ffffff } 
		.shp6 { fill: #ffdf04 } 
		.shp7 { fill: #d3d3d3 } 
		.shp8 { fill: #f6b817 } 
		.shp9 { fill: #ffc3aa } 
		.shp10 { fill: #1b1b28 } 
		.shp11 { fill: #93414b } 
		.shp12 { fill: #e2c139 } 
		.shp13 { fill: #ffd008 } 
		.shp14 { fill: #299141 } 
		.shp15 { fill: #ffb38e } 
		.shp16 { fill: #ffd0b7 } 
		.shp17 { fill: #d4d4d4 } 
		.shp18 { fill: #eaeaea } 
		.txt19 { font-size: 24px;fill: #8a151f;font-family: "Open Sans";font-weight: 600 } 
		.txt20 { font-size: 24px;line-height: 29px;fill: #8a151f;font-family: "Open Sans";font-weight: 600 } 
		.txt21 { font-size: 28px;line-height: 29px;fill: #8a151f;font-family: "Open Sans";font-weight: 700 } 
		.txt22 { font-size: 28px;line-height: 29px;fill: #e7c020;font-family: "Open Sans";font-weight: 700 } 
	</style>
	<g id="Page 1" clip-path="url(#cp1)">
		<path id="Path 1" class="shp0" d="M382.88 1252.58L343.58 1251.7L341.94 1251.66L338.82 1251.6L335.34 1251.52L251.82 1249.64C251.82 1249.64 251.7 1127.2 182.74 1066.62C113.76 1006.02 14.14 1062.16 3.56 987.56C2.5 980.14 2.06 973.56 2.14 967.78C2.14 966.28 2.2 964.84 2.28 963.44C5.3 915.98 47.14 926.74 71.94 939.5C100.28 954.08 135.16 924.92 120.56 877.34C117.96 868.86 113.04 860.74 106.86 852.42C104.92 849.78 102.84 847.12 100.68 844.42C71.3 807.92 25.44 764.58 48.7 670.54C62.22 615.9 94.1 591.86 128.3 588.72C129.8 588.58 131.3 588.48 132.8 588.42C168 587.06 204.9 607.16 226.24 638.3C227.04 639.44 227.8 640.62 228.54 641.8C231.38 646.26 233.88 650.94 236.02 655.8C269.62 732.02 220.7 899.72 316.86 975.08C345.6 997.6 367.34 1024.56 382.42 1053.38C383.58 1055.58 384.7 1057.78 385.78 1060C417.76 1126.02 415.54 1200.46 382.88 1252.58Z" />
		<path id="Path 2" class="shp1" d="M342.68 1196.16C330.64 1141.78 300.68 1091.38 269.22 1044.32C268.9 1043.84 268.58 1043.36 268.26 1042.9C268.24 1042.46 268.08 1042 267.78 1041.58C267.78 1041.58 267.22 1040.98 266.5 1040.24C206.14 949.48 158.2 846.92 136.06 739.46C135.66 737.5 135.26 735.54 134.88 733.56C135.78 732.02 137.22 729.64 138.4 727.82C161.24 692.46 192.36 662.86 228.54 641.8C227.8 640.62 227.04 639.44 226.24 638.3C202.18 652.48 180.42 670.38 161.62 691.02C151.32 702.32 141.7 714.32 133.66 727.26C124.86 680.44 121.02 632.56 132.8 588.42C131.3 588.48 129.8 588.58 128.3 588.72C118.8 625.26 120.36 663.52 125.2 700.8C126.62 711.64 128.32 722.42 130.3 733.16C130.02 734.12 130.26 734.88 130.72 735.38C141.6 793 160.52 848.94 184.86 902.58C158.18 881.4 130.18 861.54 100.68 844.42C102.84 847.12 104.92 849.78 106.86 852.42C134.46 869.1 160.96 888.74 186.66 909.46C187.4 909.96 187.96 910.18 188.36 910.2C204.36 944.56 222.52 977.94 242.2 1010.18C246.32 1016.92 250.5 1023.58 254.7 1030.16C233.28 1014.44 206.42 1006.2 179.7 1003.26C120.96 997.02 65.02 980.38 8.58 965C6.48 964.42 4.42 963.62 2.3 963.44L2.28 963.44C0.24 963.4 0 965.94 0 965.94C0.34 967.24 -0.5 966.62 1.32 967.58C1.32 967.58 1.62 967.66 2.14 967.78C3.26 968.04 5.38 968.56 7.46 969.12C61.58 983.88 115.72 999.96 171.18 1006.64C204.1 1010.54 238.84 1019.34 262.36 1042.12C280.36 1070.12 298.3 1097.52 312.68 1127C329.58 1161.66 344.44 1198.08 342.16 1234.82C341.78 1240.86 340.18 1247.14 338.82 1251.6L343.58 1251.7C349.34 1234.82 346.76 1214.68 342.68 1196.16Z" />
		<path id="Path 3" class="shp2" d="M445 955.7C443.28 977.5 435.9 998.9 422.76 1016.42C411.32 1031.68 398.14 1045.32 385.78 1060C377.08 1070.28 368.78 1081.1 361.76 1093.34C336.84 1136.7 320.86 1188.72 334.5 1234.26C336.32 1240.34 338.6 1246.42 341.94 1251.66L338.82 1251.6L335.34 1251.52C333.18 1247.54 330.52 1242.1 328.9 1236.84C309.88 1175.18 341.7 1102.26 382.42 1053.38C383.4 1052.18 384.4 1051.02 385.4 1049.86C404.14 1028.14 426.06 1008.3 434.28 981C441.72 956.34 442 929.14 427.5 907.74C398.96 865.64 336.72 854.18 316.9 813.02C310.64 800.06 308.7 785.16 310.9 770.76C314.52 747.26 327.5 725.56 344.08 709.36L346.4 708.36C346.78 708.46 347.18 708.54 347.56 708.62C352.4 712 350.08 711.9 346.9 715.18C322.84 740.3 304.96 776.9 323.08 811.76C339.88 844.1 383.02 858.66 410.4 880.96C432.26 898.74 447.44 924.82 445 955.7Z" />
		<path id="Path 4" class="shp3" d="M339.25 720.33C339.25 720.33 330.73 679.07 359.05 665.53C387.37 652 385.52 701.61 339.25 720.33ZM365.89 855.03C365.89 855.03 355.63 815.64 380.86 803.04C406.09 790.45 388.91 841.66 365.89 855.03ZM442.37 961.56C442.37 961.56 407.57 916.28 378.58 926.36C349.6 936.45 395.65 978.69 442.37 961.56ZM357.88 1095.56C357.88 1095.56 416.27 1058.79 422.64 1084.92C429.01 1111.05 372.41 1114.91 357.88 1095.56Z" />
		<path id="Path 5" class="shp0" d="M1969.6 1009.26C1967.26 1076.18 1919.78 1111.3 1846.6 1134.44C1845.26 1134.88 1843.9 1135.3 1842.54 1135.7C1820.16 1142.58 1795.44 1148.38 1768.96 1153.68C1653.2 1176.82 1655.1 1249.48 1655.1 1249.48L1522.16 1249.48C1501.44 1206.88 1524.8 1154.56 1596.04 1091.74C1651.72 1042.64 1669.22 1022.12 1667.18 969.88C1667.12 968.1 1667.02 966.26 1666.92 964.4C1666.1 951.04 1664.14 935.66 1661.32 917.34C1653.48 866.28 1676.62 842.7 1704.66 840.32C1706.1 840.2 1707.56 840.14 1709.04 840.12C1732.38 839.98 1758.1 853.82 1771.86 878.24C1773.68 881.46 1775.22 884.76 1776.52 888.12C1777.06 889.5 1777.56 890.9 1778.02 892.3C1795.56 946.16 1755.02 1012.22 1774.8 1026.7C1796.34 1042.46 1831.48 1023.72 1846.28 968.46C1848.04 961.86 1851.2 956.16 1855.38 951.38C1856.4 950.2 1857.5 949.08 1858.64 948.04C1875.5 932.38 1904.62 929.04 1928.8 939.44C1930.32 940.1 1931.82 940.8 1933.28 941.56C1954.48 952.5 1970.8 974.72 1969.6 1009.26Z" />
		<path id="Path 6" class="shp1" d="M1917.04 1004.74C1905.44 1023.78 1889.6 1039.04 1871.72 1051.7C1871.62 1052.4 1871 1055.46 1868.34 1054.1C1868.34 1054.1 1868.32 1054.1 1868.28 1054.08C1846.34 1068.98 1821.62 1080.16 1798.08 1089.6C1807.14 1090.3 1815.92 1093.7 1823.18 1099.36C1834.56 1108.22 1841.72 1121.06 1846.6 1134.44C1845.26 1134.88 1843.9 1135.3 1842.54 1135.7C1835.68 1116.9 1824.52 1099.5 1804.14 1094.8C1797.82 1093.34 1791.08 1093.16 1784.86 1094.8C1778.68 1097.18 1772.62 1099.48 1766.78 1101.72C1711.52 1122.88 1655.4 1146.7 1616.1 1191.76C1602.78 1207.02 1592.12 1225.64 1590.96 1246.58C1590.9 1247.54 1590.88 1248.5 1590.86 1249.48C1590.84 1250.5 1590.86 1251.54 1590.9 1252.58L1586.38 1252.58C1586.36 1251.6 1586.4 1250.56 1586.44 1249.48C1586.48 1248.54 1586.54 1247.56 1586.62 1246.58C1586.66 1246 1586.7 1245.42 1586.76 1244.84C1589.14 1206.02 1609.34 1170.04 1633.88 1138.4C1660.16 1104.52 1691.56 1073.68 1708.96 1034.66C1708.3 1009.44 1688.22 985.34 1667.18 969.88C1665.72 968.78 1664.24 967.74 1662.76 966.74C1662.76 966.74 1660.62 962.68 1664.2 962.84C1665.64 963.1 1665.84 963.66 1666.48 964.1C1666.62 964.2 1666.78 964.3 1666.92 964.4C1688.54 979.38 1708.5 1000.32 1712.52 1026.06C1712.8 1025.32 1713.06 1024.58 1713.34 1023.84C1720.18 1005 1723.18 985.14 1723.66 964.92C1723.64 964.6 1723.66 964.26 1723.68 963.9C1724.24 934.78 1719.56 904.88 1713.46 876.02C1710.92 864.02 1708.06 852.08 1704.66 840.32C1706.1 840.2 1707.56 840.14 1709.04 840.12C1719.62 875.82 1727.08 913.04 1727.76 949.7C1737.26 924.52 1753.9 901.26 1776.52 888.12C1777.06 889.5 1777.56 890.9 1778.02 892.3C1752.88 907.22 1734.8 935.26 1727.7 963.8C1727.32 975.68 1726.2 987.48 1724.18 999.12C1722.06 1011.3 1718.24 1022.94 1713.22 1034.18C1713.28 1036.5 1713.2 1038.84 1712.98 1041.22C1712.2 1049.46 1709.4 1047.24 1708.54 1046.02C1708.22 1045.58 1708.16 1045.14 1708.22 1044.52C1693 1073.76 1670.28 1100.26 1649.26 1125.98C1628.32 1151.66 1608.4 1179.2 1598.08 1209.8C1604.76 1197.98 1613.74 1187.24 1623.3 1178.06C1666.02 1137.02 1724.28 1112.72 1779.38 1092.5C1780.42 1091.24 1783.08 1090.46 1786.24 1090C1787.5 1089.54 1788.74 1089.1 1789.98 1088.64C1817.22 1078.72 1844.62 1066.3 1867.88 1049.98C1868.02 1049.46 1868.2 1048.88 1868.46 1048.24C1876.14 1027.54 1871.66 1003.96 1865.76 982.34C1862.9 971.82 1859.34 961.52 1855.38 951.38C1854.62 949.46 1853.86 947.56 1853.08 945.66C1853.08 945.66 1852.82 942.68 1855.26 942.74C1857.98 943.16 1857.52 945.22 1858.24 947.02C1858.38 947.36 1858.5 947.7 1858.64 948.04C1871.28 979.84 1882.7 1015.26 1873.74 1045.7C1896.92 1028.24 1915.3 1006.52 1924.24 979.08C1928.38 966.36 1930.58 952.58 1928.8 939.44C1930.32 940.1 1931.82 940.8 1933.28 941.56C1935.42 963.04 1928.36 986.12 1917.04 1004.74Z" />
		<path id="Path 7" class="shp4" d="M1549.69 1249.33C1549.69 1249.33 1547.1 1224.39 1581.46 1189.63C1615.83 1154.88 1650.43 1127.91 1642.11 1084.79C1633.8 1041.67 1582.63 1074.61 1564.34 1102.91C1546.05 1131.22 1508.63 1104.72 1542.31 1070.05C1576 1035.38 1627.64 1027.64 1632.82 972.51C1638 917.38 1578.3 892.88 1527.13 935.83C1475.96 978.77 1446.14 943.95 1474.76 905.74C1503.37 867.53 1510.51 812.89 1455.89 812.85C1401.26 812.8 1355.49 884.18 1361.48 924.7C1367.48 965.22 1428.74 955.58 1448.24 973.44C1467.74 991.3 1440.63 1008.28 1393.4 1031.19C1346.17 1054.1 1372.36 1115.63 1415.1 1080.28C1457.83 1044.92 1483.74 1033.18 1491.63 1065.13C1499.51 1097.08 1393.94 1115.32 1408.53 1148.62C1423.12 1181.92 1461.18 1158.49 1483.83 1145.6C1506.49 1132.7 1523.36 1155.46 1503.17 1180.44C1482.99 1205.42 1486.26 1226.6 1502.49 1249.65L1549.69 1249.33Z" />
		<path id="Path 8" class="shp1" d="M847.04 1253.01L1386.43 1253.01L1386.43 942.35L847.04 942.35L847.04 1253.01Z" />
		<path id="Path 9" class="shp5" d="M1923.14 121.42L1923.14 990.52C1923.14 1030.78 1892.66 1063.42 1855.08 1063.42L378.38 1063.42C340.8 1063.42 310.34 1030.78 310.34 990.52L310.34 121.42C310.34 81.18 340.8 48.54 378.38 48.54L1855.08 48.54C1892.66 48.54 1923.14 81.18 1923.14 121.42Z" />
		<path id="Path 10" class="shp2" d="M1923.14 873.82L1923.14 990.52C1923.14 1030.78 1892.66 1063.42 1855.08 1063.42L378.38 1063.42C340.8 1063.42 310.34 1030.78 310.34 990.52L310.34 873.82L1923.14 873.82Z" />
		<path id="Path 11" class="shp6" d="M410.6 100.53C421.94 100.53 431.15 109.74 431.15 121.08C431.15 132.42 421.94 141.63 410.6 141.63C399.26 141.63 390.05 132.42 390.05 121.08C390.05 109.74 399.26 100.53 410.6 100.53Z" />
		<path id="Path 12" class="shp1" d="M483.36 100.53C494.7 100.53 503.91 109.74 503.91 121.08C503.91 132.42 494.7 141.63 483.36 141.63C472.02 141.63 462.81 132.42 462.81 121.08C462.81 109.74 472.02 100.53 483.36 100.53Z" />
		<path id="Path 13" class="shp7" d="M556.12 100.53C567.46 100.53 576.67 109.74 576.67 121.08C576.67 132.42 567.46 141.63 556.12 141.63C544.78 141.63 535.57 132.42 535.57 121.08C535.57 109.74 544.78 100.53 556.12 100.53Z" />
		<path id="Path 14" class="shp8" d="M1612.47 269.66L1730.06 269.66C1736.71 269.66 1742.1 275.05 1742.1 281.7L1742.1 397.88C1742.1 404.53 1736.71 409.92 1730.06 409.92L1542.43 409.92C1539.24 409.92 1536.18 408.65 1533.92 406.39C1531.66 404.13 1530.4 401.07 1530.4 397.88L1530.4 254.18C1530.4 250.99 1531.66 247.92 1533.92 245.67C1536.18 243.41 1539.24 242.14 1542.43 242.14L1598 242.14L1612.47 269.66Z" />
		<path id="Path 15" class="shp0" d="M1612.47 546.53L1730.06 546.53C1736.71 546.53 1742.1 551.92 1742.1 558.57L1742.1 674.75C1742.1 681.4 1736.71 686.79 1730.06 686.79L1542.43 686.79C1539.24 686.79 1536.18 685.52 1533.92 683.26C1531.66 681.01 1530.4 677.94 1530.4 674.75L1530.4 531.05C1530.4 527.86 1531.66 524.8 1533.92 522.54C1536.18 520.28 1539.24 519.01 1542.43 519.01L1598 519.01L1612.47 546.53Z" />
		<path id="Path 16" class="shp5" d="M376.9 786.8L402.89 786.8L402.89 765.51L376.9 765.51L376.9 786.8ZM411.13 786.8L437.12 786.8L437.12 765.51L411.13 765.51L411.13 786.8ZM376.9 818.17L402.89 818.17L402.89 796.89L376.9 796.89L376.9 818.17ZM411.13 818.17L437.12 818.17L437.12 796.89L411.13 796.89L411.13 818.17ZM463.64 776.59L513.62 776.59L513.62 765.52L463.64 765.52L463.64 776.59ZM463.64 796.6L513.62 796.6L513.62 785.53L463.64 785.53L463.64 796.6ZM463.64 818.17L513.62 818.17L513.62 807.1L463.64 807.1L463.64 818.17Z" />
		<path id="Path 17" class="shp2" d="M279.27 1250.26C279.27 1250.26 292.71 1167.11 292.06 1105.45C291.41 1043.79 262.77 1095.5 254.51 1156.55C254.51 1156.55 258.11 1082.8 243.44 1031.25C228.78 979.7 178.73 1018.54 215.41 1146.72C215.41 1146.72 187.03 1089.51 144.79 1074.9C102.55 1060.29 141.26 1123.9 193.76 1172.93C193.76 1172.93 150.6 1146.23 103.76 1146.72C56.91 1147.2 76.98 1220.8 201.67 1249.3L279.27 1250.26Z" />
		<path id="Path 18" class="shp0" d="M909.22 1047.62C909.3 1051.68 908.94 1056.3 908.12 1061.52C899.82 1114 821.78 1074.52 767.74 1117.12C713.72 1159.74 710.58 1249.64 710.58 1249.64L646.02 1248.78L642.34 1248.74L618.94 1248.42C581.22 1194.38 587.34 1105.74 662.66 1052.76C738 999.76 699.68 881.82 726 828.2C727.68 824.78 729.64 821.5 731.86 818.36C732.44 817.52 733.04 816.72 733.66 815.9C750.38 794 779.3 779.86 806.88 780.82C808.06 780.86 809.22 780.94 810.38 781.04C837.18 783.24 862.18 800.14 872.76 838.58C891 904.74 855.02 935.22 832 960.88C830.3 962.78 828.68 964.66 827.14 966.52C822.34 972.36 818.5 978.06 816.46 984C805.02 1017.48 832.36 1037.98 854.56 1027.74C873.98 1018.76 906.76 1011.2 909.1 1044.56C909.18 1045.54 909.22 1046.56 909.22 1047.62Z" />
		<path id="Path 19" class="shp1" d="M910.9 1046.32C910.9 1046.32 910.72 1044.54 909.12 1044.56L909.1 1044.56C907.44 1044.7 905.84 1045.26 904.18 1045.66C859.96 1056.48 816.14 1068.18 770.12 1072.58C749.2 1074.64 728.14 1080.44 711.38 1091.5C714.66 1086.86 717.94 1082.18 721.16 1077.44C736.58 1054.76 750.82 1031.28 763.34 1007.12C763.66 1007.1 764.1 1006.96 764.68 1006.6C784.8 992.04 805.54 978.24 827.14 966.52C828.68 964.66 830.3 962.78 832 960.88C808.9 972.9 786.98 986.88 766.08 1001.76C785.16 964.04 799.98 924.7 808.5 884.16C808.86 883.82 809.04 883.3 808.82 882.6C810.38 875.06 811.72 867.48 812.82 859.86C816.62 833.64 817.82 806.72 810.38 781.04C809.22 780.94 808.06 780.86 806.88 780.82C816.08 811.86 813.08 845.54 806.2 878.46C799.9 869.36 792.36 860.92 784.3 852.98C769.56 838.48 752.52 825.86 733.66 815.9C733.04 816.72 732.44 817.52 731.86 818.36C760.2 833.18 784.58 853.98 802.48 878.86C803.4 880.14 804.52 881.82 805.24 882.9C804.94 884.28 804.62 885.66 804.3 887.04C786.98 962.62 749.42 1034.74 702.12 1098.58C701.56 1099.1 701.12 1099.52 701.12 1099.52C700.88 1099.82 700.76 1100.14 700.74 1100.44C700.5 1100.78 700.24 1101.12 700 1101.46C675.34 1134.54 651.88 1169.98 642.44 1208.24C639.1 1221.8 637.06 1236.58 642.34 1248.74C642.48 1249.12 642.64 1249.48 642.82 1249.84C644.86 1254.16 644.82 1252.78 645.84 1252.78C645.94 1252.78 646.62 1252.74 647.16 1251.6C647.16 1251.6 646.68 1250.52 646.02 1248.78C644.86 1245.66 643.18 1240.42 642.84 1235.42C641.06 1209.58 652.7 1183.96 665.94 1159.6C677.22 1138.86 691.26 1119.6 705.38 1099.9C723.8 1083.88 751 1077.68 776.8 1074.94C820.26 1070.26 862.66 1058.94 905.06 1048.56C906.68 1048.16 908.32 1047.8 909.22 1047.62C909.64 1047.52 909.88 1047.48 909.88 1047.48C911.3 1046.8 910.64 1047.24 910.9 1046.32ZM1906.94 1249.58L1906.06 1251.7C1905.1 1252.34 1905.08 1252.34 1903.94 1252.58L27.32 1252.58C24.7 1252.06 24.54 1250.72 24.54 1250.72C24.02 1248.12 25.2 1247.46 25.2 1247.46L27.32 1246.58L1903.94 1246.58C1904.32 1246.66 1904.7 1246.72 1905.1 1246.8C1907.3 1248.28 1906.94 1249.58 1906.94 1249.58ZM1684.58 0.16L1672.21 0.53L1709.1 1253.01L1721.48 1252.65L1684.58 0.16ZM1395.67 0.16L1408.04 0.53L1371.15 1253.01L1358.77 1252.65L1395.67 0.16ZM1382.62 110.14L1701.91 110.14L1701.91 100.53L1382.62 100.53L1382.62 110.14ZM1382.62 312.53L1701.91 312.53L1701.91 302.93L1382.62 302.93L1382.62 312.53ZM1382.62 541.22L1701.91 541.22L1701.91 531.62L1382.62 531.62L1382.62 541.22ZM1382.62 869.84L1701.91 869.84L1701.91 860.24L1382.62 860.24L1382.62 869.84Z" />
		<path id="Path 20" class="shp9" d="M1540.74 169.6C1540.74 169.6 1529.37 178.99 1527.4 204.84C1525.43 230.69 1536.97 224.08 1543.29 225.13C1549.62 226.17 1552.42 228.13 1552.64 235.41C1552.64 235.41 1562.92 241.85 1578.61 240.87C1594.29 239.9 1594.57 234.21 1594.57 234.21C1594.57 234.21 1589.23 225.18 1586.83 210.86C1585.07 200.41 1559.71 151.64 1540.74 169.6ZM1660.55 207.74C1660.55 207.74 1655.09 187.83 1656.67 176.86C1658.25 165.9 1669.84 159.69 1680.63 168.83C1680.63 168.83 1690.22 161.51 1699.45 168.65C1708.68 175.79 1694.93 194.84 1686.79 200.94C1678.64 207.03 1660.55 207.74 1660.55 207.74ZM1411.09 240.97C1411.09 240.97 1414.56 229.6 1421.96 233.28C1429.36 236.97 1426.33 241.62 1426.05 249.19C1425.78 256.76 1411.09 240.97 1411.09 240.97ZM1427.82 255.93C1427.82 255.93 1430.46 256.66 1428.45 250.93C1426.44 245.2 1414.95 229.6 1397.59 234.08C1380.22 238.56 1373.86 237.33 1369.34 236.09C1364.82 234.84 1359.74 237.39 1361.22 245.75C1362.69 254.1 1371.6 257.15 1382.49 255.23C1393.37 253.3 1396.75 258.62 1400.04 263.86C1403.33 269.11 1427.82 255.93 1427.82 255.93Z" />
		<path id="Path 21" class="shp10" d="M1461.12 752.15C1461.12 752.15 1444.3 809.07 1439.95 821.4C1435.59 833.74 1433.87 839.31 1424.97 842.12C1416.08 844.93 1401.77 850.55 1397.19 853.81C1392.62 857.06 1390.2 860.31 1396.64 860.12C1403.07 859.93 1471.13 859.48 1478.91 859.11C1486.69 858.73 1488.17 848.32 1491.8 836.65C1495.97 823.26 1517.21 747.99 1511.87 756.98C1509.65 760.72 1461.12 752.15 1461.12 752.15ZM1676.36 761.85C1676.36 761.85 1683.37 821.81 1685.61 839.31C1687.84 856.82 1684.86 859.42 1678.15 859.16C1671.45 858.9 1600.56 860.44 1594.46 860.21C1588.36 859.99 1590.42 854.91 1600.98 850.29C1611.54 845.68 1627.8 838.66 1629.86 832.27C1631.93 825.88 1625.26 777.32 1623.28 767.3C1621.3 757.29 1669.36 740.49 1676.36 761.85Z" />
		<path id="Path 22" class="shp11" d="M1679.46 459.08C1677.96 476.58 1679.54 506.14 1679.46 533.82C1679.36 561.5 1670.54 630.72 1670.46 641.94C1670.38 653.16 1673.72 684.64 1672.54 695.56C1671.36 706.5 1672.62 722.54 1674.1 731.1C1675.6 739.68 1679.66 750.8 1677.06 765.34C1673.1 765.24 1663 764.96 1652.34 766.22C1641.68 767.48 1620.38 766.86 1606.64 766.96C1604.66 764.88 1603.54 759.68 1602.52 753.12C1601.58 747.26 1600.74 740.34 1599.38 733.62C1596.54 719.38 1594.72 667.54 1592.72 641.48C1590.82 616.56 1592.82 575.04 1592.98 571.48C1593 571.32 1593 571.24 1593 571.24C1593 571.24 1587.02 575.96 1576.26 593.68C1565.5 611.38 1542.94 669.66 1539.12 686.08C1535.28 702.52 1533.02 721.52 1527.4 731.78C1521.78 742.04 1521.4 747.54 1520.82 756.02C1520.24 764.5 1516.5 767.16 1506.5 766.8C1496.5 766.44 1478.94 769.9 1470.32 769.76C1461.7 769.62 1455.9 772.32 1442.52 766.78C1442.64 765.34 1442.84 763.72 1443.14 761.94C1446.26 742.8 1459.14 704.26 1471.42 661.6C1484.82 614.96 1516.82 521.56 1527.4 496.44C1537.98 471.32 1540.18 456.46 1542.54 443.66C1544.92 430.86 1556.04 428.38 1556.04 428.38C1563.76 418.7 1583.7 414.76 1605.12 414.16C1637.7 413.24 1673.72 420.06 1675.54 426.12C1678.58 436.2 1680.94 441.56 1679.46 459.08Z" />
		<path id="Path 23" class="shp1" d="M1679.46 459.08C1677.96 476.58 1679.54 506.14 1679.46 533.82C1679.36 561.5 1670.54 630.72 1670.46 641.94C1670.38 653.16 1673.72 684.64 1672.54 695.56C1671.36 706.5 1672.62 722.54 1674.1 731.1C1675.6 739.68 1679.66 750.8 1677.06 765.34C1673.1 765.24 1663 764.96 1652.34 766.22C1641.68 767.48 1620.38 766.86 1606.64 766.96C1604.66 764.88 1603.54 759.68 1602.52 753.12C1639.12 745.5 1642.82 708.74 1635.76 668.36C1628.44 626.4 1630.72 558.88 1632.54 551.32C1634.36 543.76 1646.58 528.4 1639.02 522.58C1631.46 516.76 1625.4 528.88 1618.38 538.18C1611.38 547.48 1598.92 563.8 1593.26 571.08C1593.16 571.2 1593.06 571.34 1592.98 571.48C1593 571.32 1593 571.24 1593 571.24C1593 571.24 1587.02 575.96 1576.26 593.68C1565.5 611.38 1542.94 669.66 1539.12 686.08C1535.28 702.52 1533.02 721.52 1527.4 731.78C1521.78 742.04 1521.4 747.54 1520.82 756.02C1520.24 764.5 1516.5 767.16 1506.5 766.8C1496.5 766.44 1478.94 769.9 1470.32 769.76C1461.7 769.62 1455.9 772.32 1442.52 766.78C1442.64 765.34 1442.84 763.72 1443.14 761.94C1466.04 762.6 1478 745.1 1489.6 704.8C1501.9 662.1 1509.34 588.94 1558.5 521.24C1607.68 453.56 1582.06 420.04 1582.06 420.04L1605.12 414.16C1637.7 413.24 1673.72 420.06 1675.54 426.12C1678.58 436.2 1680.94 441.56 1679.46 459.08Z" />
		<path id="Path 24" class="shp2" d="M1702.44 324.38C1702.38 324.52 1702.32 324.66 1702.24 324.8C1691.5 348.34 1664.98 337.24 1664.98 337.24C1664.96 337.26 1664.96 337.26 1664.98 337.28L1665.06 337.54C1665.12 337.82 1665.24 338.28 1665.4 338.9L1665.4 338.94C1666.88 345.18 1671.82 366.88 1672.22 379.76C1672.68 394.9 1672.58 399.12 1677.08 407.16C1681.56 415.18 1682.48 431.82 1674.84 436.08C1667.22 440.34 1656.04 430.56 1645.16 432.64C1634.28 434.74 1626.02 432.64 1616.48 430.08C1609.44 428.18 1597.7 430.8 1586.4 434.34C1582.4 435.58 1578.46 436.94 1574.8 438.26C1560.8 443.3 1542.54 443.66 1542.54 443.66C1542.54 443.66 1543.48 438.72 1544.38 432.94C1545.26 427.44 1546.1 421.2 1546.08 417.78L1546.08 417.26C1545.88 410.72 1538.36 405.9 1538.22 392.92C1538.18 389.06 1538.58 385.38 1539.12 381.86L1539.12 381.84C1540.4 373.5 1542.44 366.14 1541.32 360.18C1541.24 359.76 1541.16 359.34 1541.08 358.9C1539.82 352.6 1537.92 345.28 1537.1 342.18C1536.86 341.24 1536.7 340.68 1536.7 340.68C1536.7 340.68 1516 373.88 1497.8 384.24C1479.6 394.6 1450.1 385.12 1434.64 351.96C1424.86 331 1412.64 301.82 1404.96 283.16C1400.5 272.3 1397.58 265 1397.58 265C1397.58 265 1408.26 246.26 1428.48 250.46C1428.48 250.46 1451.48 290.56 1466.1 316.48C1471.8 326.58 1476.22 334.54 1477.48 337.1C1477.5 337.08 1477.5 337.06 1477.52 337.04C1478.56 335.78 1495.12 315.3 1506.1 289.26C1514.86 268.5 1519.84 248.18 1543.94 237.44C1551.02 234.28 1559.78 231.94 1570.76 230.68C1606.06 226.62 1633.5 236.98 1653.74 253.62C1654.22 254 1654.7 254.4 1655.16 254.8C1655.82 238.96 1657.66 206.7 1657.66 206.7C1660.82 202.82 1664.2 200.5 1667.52 199.18C1677.34 195.26 1686.42 200.24 1686.42 200.24C1686.42 200.24 1687.28 200.62 1695.68 225.02C1704.1 249.44 1713.06 300.28 1702.44 324.38Z" />
		<path id="Path 25" class="shp12" d="M1543.74 261.7C1541.64 268.12 1533.58 273.06 1524.08 295.02C1514.58 316.98 1489.38 356.04 1479.1 355.84C1468.84 355.66 1474.06 342.98 1477.48 337.1C1477.5 337.08 1477.5 337.06 1477.52 337.04C1478.56 335.78 1495.12 315.3 1506.1 289.26C1514.86 268.5 1519.84 248.18 1543.94 237.44C1549.66 242.34 1545.4 256.64 1543.74 261.7ZM1546.08 417.26C1545.88 410.72 1538.36 405.9 1538.22 392.92C1538.18 389.06 1538.58 385.38 1539.12 381.86L1539.12 381.84C1541.3 379.1 1544.66 377.06 1548.96 381.22C1556.88 388.9 1549.44 393.82 1551 401.48C1552.48 408.82 1552.54 414.9 1546.08 417.78L1546.08 417.26ZM1586.4 434.34C1582.4 435.58 1578.46 436.94 1574.8 438.26C1560.8 443.3 1542.54 443.66 1542.54 443.66C1542.54 443.66 1543.48 438.72 1544.38 432.94C1554.6 426.42 1583.68 415.62 1586.4 434.34ZM1677.7 278.4C1674.12 275.2 1658.42 259.44 1655.3 255.74C1654.68 255 1654.16 254.3 1653.74 253.62C1654.22 254 1654.7 254.4 1655.16 254.8C1655.82 238.96 1657.66 206.7 1657.66 206.7C1660.82 202.82 1664.2 200.5 1667.52 199.18C1669.34 200.2 1670.26 203.04 1670.1 209.28C1669.78 222.78 1675.46 248.4 1678.38 259.36C1681.28 270.3 1681.26 281.62 1677.7 278.4ZM1466.1 316.48C1461.04 321.7 1450.48 314.98 1442.2 308.94C1432.62 301.96 1433.84 290.78 1422.82 286.94C1417.14 284.94 1410.28 283.8 1404.96 283.16C1400.5 272.3 1397.58 265 1397.58 265C1397.58 265 1408.26 246.26 1428.48 250.46C1428.48 250.46 1451.48 290.56 1466.1 316.48Z" />
		<path id="Path 26" class="shp13" d="M1563.92 317.6C1561.38 336.34 1547.02 352.8 1541.08 358.9C1539.82 352.6 1537.92 345.28 1537.1 342.18C1537.18 342 1537.26 341.8 1537.34 341.62C1541.82 331.34 1549.88 308.96 1550.62 291.76C1550.62 291.76 1567.14 293.84 1563.92 317.6Z" />
		<path id="Path 27" class="shp14" d="M1665.06 337.54C1665.12 337.82 1665.24 338.28 1665.4 338.9C1665.28 338.52 1665.18 338.14 1665.08 337.72C1665.04 337.58 1665 337.44 1664.98 337.28L1665.06 337.54Z" />
		<path id="Path 28" class="shp13" d="M1702.24 324.8C1691.5 348.34 1664.98 337.24 1664.98 337.24C1662.48 327.52 1649.88 287.46 1645.76 277.74C1641.58 267.88 1644.24 267.94 1653.38 278.84C1662.52 289.76 1677.86 314.26 1684.56 321.82C1689.38 327.24 1699.92 321.32 1702.24 324.8Z" />
		<path id="Path 29" class="shp1" d="M1537.56 153.8C1537.56 153.8 1527.46 149.79 1527.4 159.44C1527.34 169.1 1540.25 175.42 1540.8 180.91C1541.34 186.39 1543.42 187.1 1546.83 183.62C1550.24 180.13 1555.7 181.77 1556.95 189.52C1558.19 197.27 1552.59 198.73 1552.59 198.73C1552.59 198.73 1558.2 211 1562.02 213.41C1562.02 213.41 1578.59 211.28 1586.87 211.08C1586.87 211.08 1583.82 203.31 1591.97 190.86C1600.11 178.4 1605.14 160.2 1587.35 158.43C1587.35 158.43 1587.45 148.74 1573.27 142.28C1559.09 135.82 1540.68 146.82 1537.56 153.8Z" />
		<path id="Path 30" class="shp0" d="M390.05 243.05C390.05 229.01 378.65 217.62 364.62 217.62L99.76 217.62C85.72 217.62 74.33 229.01 74.33 243.05L74.33 293.91C74.33 307.95 85.72 319.35 99.76 319.35L364.62 319.35C378.65 319.35 390.05 307.95 390.05 293.91L390.05 243.05Z" />
		<path id="Path 31" class="shp4" d="M390.05 382.05C390.05 368.02 378.65 356.62 364.62 356.62L99.76 356.62C85.72 356.62 74.33 368.02 74.33 382.05L74.33 432.92C74.33 446.95 85.72 458.35 99.76 458.35L364.62 458.35C378.65 458.35 390.05 446.95 390.05 432.92L390.05 382.05Z" />
		<path id="Path 32" class="shp2" d="M1243.81 1370.17C1360.48 1370.17 1455.2 1377.08 1455.2 1385.59C1455.2 1394.09 1360.48 1401 1243.81 1401C1127.15 1401 1032.43 1394.09 1032.43 1385.59C1032.43 1377.08 1127.15 1370.17 1243.81 1370.17Z" />
		<path id="Path 33" class="shp7" d="M1351.16 1149.3C1341.82 1154.78 1331.36 1159.62 1320.16 1163.82C1320.14 1163.82 1320.1 1163.84 1320.08 1163.84C1314.02 1166.14 1307.72 1168.22 1301.3 1170.12C1237.92 1188.92 1160.06 1189.72 1129.36 1173.02C1115.98 1165.74 1109.8 1157.1 1107.86 1148.06C1104.04 1130.34 1116.4 1111.08 1122.56 1097.4L1122.58 1097.38C1131.88 1076.72 1134.92 1058.58 1143.34 1032.38C1151.76 1006.16 1179.32 931.46 1184.56 919.6C1189.82 907.74 1197.36 910.58 1197.36 910.58L1330.14 884.9C1330.14 884.9 1331.4 904.34 1333.44 928.64C1333.5 929.32 1333.56 930.06 1333.62 930.86C1335.88 957.8 1342.58 1040.7 1343.16 1068.32C1343.28 1074.44 1343.74 1081.68 1344.34 1089.26C1346.58 1116.94 1351.16 1149.3 1351.16 1149.3ZM1344.34 1089.26C1339.8 1095.74 1334.7 1101.48 1329.4 1106.46C1308.02 1126.56 1326.32 1146.52 1312.7 1154.8C1305.24 1159.32 1302.38 1165.46 1301.3 1170.12C1237.92 1188.92 1160.06 1189.72 1129.36 1173.02C1089.78 1151.5 1113.26 1118.06 1122.56 1097.4L1122.58 1097.38C1122.58 1097.38 1143.9 1150.36 1178.96 1116.52C1214.02 1082.68 1216.36 1064.24 1244.52 1058.12C1272.68 1052 1291.1 1011.4 1287.7 967.62C1287.7 967.62 1256.56 941.86 1241.9 933.04C1227.24 924.22 1307.74 924.54 1319.14 919.32C1322.96 917.58 1328.14 922.22 1333.62 930.86C1335.88 957.8 1342.58 1040.7 1343.16 1068.32C1343.28 1074.44 1343.74 1081.68 1344.34 1089.26Z" />
		<path id="Path 34" class="shp4" d="M1320.08 1163.84C1314.02 1166.14 1307.72 1168.22 1301.3 1170.12C1237.92 1188.92 1160.06 1189.72 1129.36 1173.02C1115.98 1165.74 1109.8 1157.1 1107.86 1148.06C1108.12 1141.96 1111.7 1135.84 1122.08 1131.58C1151.72 1119.38 1179.78 1128.58 1197.86 1138.82C1215.94 1149.08 1262.68 1173.18 1297.1 1168.14C1305.7 1166.88 1313.4 1165.38 1320.08 1163.84Z" />
		<path id="Path 35" class="shp15" d="M1385.28 1382.82C1369.6 1383.08 1331.44 1386.04 1319.58 1385.08C1307.72 1384.14 1333.96 1369.9 1347.32 1364.94C1351.16 1363.52 1353.7 1362.24 1355.22 1360.68C1358.96 1356.9 1356.44 1351.5 1351.92 1338.28C1345.56 1319.74 1329.54 1272.48 1318.84 1252.4C1308.14 1232.34 1290.82 1208.2 1286 1197.82C1281.18 1187.46 1275.02 1167.7 1275.02 1167.7C1295.7 1168.04 1316.88 1164.38 1342.18 1153.98C1342.18 1153.98 1353.14 1180.16 1365.6 1201.5C1378.04 1222.84 1382.24 1260.12 1385.24 1285.18C1387.8 1306.56 1393.54 1341.54 1397.96 1358.52C1398.72 1361.44 1399.44 1363.82 1400.1 1365.52C1404.62 1377.08 1400.96 1382.56 1385.28 1382.82Z" />
		<path id="Path 36" class="shp1" d="M1385.28 1382.82C1369.6 1383.08 1331.44 1386.04 1319.58 1385.08C1307.72 1384.14 1333.96 1369.9 1347.32 1364.94C1351.16 1363.52 1353.7 1362.24 1355.22 1360.68C1357.92 1360.96 1360.62 1361.72 1363.3 1363.08C1380.32 1371.78 1388.2 1370.86 1391.46 1364.02C1393.74 1359.24 1395.34 1358.06 1397.96 1358.52C1398.72 1361.44 1399.44 1363.82 1400.1 1365.52C1404.62 1377.08 1400.96 1382.56 1385.28 1382.82Z" />
		<path id="Path 37" class="shp16" d="M1196.84 1138.04C1196.84 1138.04 1192.48 1147.8 1187.02 1159.78C1183.88 1166.64 1180.38 1174.24 1177.14 1181.18C1171.76 1192.64 1166.88 1207.32 1162.48 1223.02C1159.58 1233.38 1156.9 1244.2 1154.4 1254.84C1148.16 1281.62 1132.32 1301.94 1124.82 1326.94C1119.2 1345.64 1117.58 1358.22 1116.4 1366.84C1116 1369.74 1115.64 1372.2 1115.2 1374.28C1113.44 1382.58 1109.46 1385.42 1100.32 1385.26C1096.74 1385.2 1086.96 1385.1 1075.94 1384.96C1058.9 1384.78 1038.92 1384.54 1034.3 1384.24C1026.68 1383.76 1020.2 1378.32 1033.82 1373.56C1039.44 1371.6 1046.58 1369.58 1053.36 1366.82C1053.42 1366.8 1053.46 1366.78 1053.52 1366.76C1057.02 1365.32 1060.42 1363.68 1063.46 1361.72C1068.72 1358.34 1072.9 1354.04 1074.64 1348.28C1079.34 1332.74 1094.26 1247.58 1100.4 1216.04C1104.08 1197.14 1109.74 1173.68 1114.42 1155.94L1114.42 1155.92C1117.56 1144.06 1120.24 1134.74 1121.58 1131.06C1121.58 1131.06 1149.08 1110.32 1196.84 1138.04Z" />
		<path id="Path 38" class="shp15" d="M1196.84 1138.04C1196.84 1138.04 1192.48 1147.8 1187.02 1159.78C1156.74 1151.62 1122.48 1154.98 1114.42 1155.92C1117.56 1144.06 1120.24 1134.74 1121.58 1131.06C1121.58 1131.06 1149.08 1110.32 1196.84 1138.04ZM1162.48 1223.02C1159.58 1233.38 1156.9 1244.2 1154.4 1254.84C1148.16 1281.62 1132.32 1301.94 1124.82 1326.94C1119.2 1345.64 1117.58 1358.22 1116.4 1366.84C1116 1369.74 1115.64 1372.2 1115.2 1374.28C1113.44 1382.58 1109.46 1385.42 1100.32 1385.26C1096.74 1385.2 1086.96 1385.1 1075.94 1384.96L1053.36 1366.82C1053.42 1366.8 1053.46 1366.78 1053.52 1366.76C1062.48 1372.78 1077.18 1379.84 1088.98 1371.9C1095.1 1367.82 1100.44 1359.68 1103.8 1345.3C1117.22 1287.84 1137.16 1271.88 1155.06 1236.8C1157.86 1231.3 1160.32 1226.76 1162.48 1223.02Z" />
		<path id="Path 39" class="shp1" d="M1116.4 1366.84C1116 1369.74 1115.64 1372.2 1115.2 1374.28C1113.44 1382.58 1109.46 1385.42 1100.32 1385.26C1096.74 1385.2 1086.96 1385.1 1075.94 1384.96C1058.9 1384.78 1038.92 1384.54 1034.3 1384.24C1026.68 1383.76 1020.2 1378.32 1033.82 1373.56C1039.44 1371.6 1046.58 1369.58 1053.36 1366.82C1053.42 1366.8 1053.46 1366.78 1053.52 1366.76C1057.02 1365.32 1060.42 1363.68 1063.46 1361.72C1067.48 1361.06 1073.18 1361.56 1079.86 1366.2C1083.24 1368.56 1086.26 1370.46 1088.98 1371.9C1097 1376.2 1102.32 1376.56 1105.76 1372.58C1109.64 1368.1 1112.28 1365.78 1116.4 1366.84Z" />
		<path id="Path 40" class="shp16" d="M1318.05 980.79C1318.05 980.79 1316.49 991.29 1311.5 998.66C1306.5 1006.02 1313.41 1012.85 1320.36 1008.03C1320.36 1008.03 1318.76 1028.43 1335.26 1028.64C1351.77 1028.85 1356.21 1015.24 1353.27 1005.53C1350.33 995.81 1354.74 977.39 1354.32 974.07C1353.91 970.74 1318.05 980.79 1318.05 980.79Z" />
		<path id="Path 41" class="shp2" d="M656.5 1370.17C773.16 1370.17 867.88 1377.08 867.88 1385.59C867.88 1394.09 773.16 1401 656.5 1401C539.83 1401 445.11 1394.09 445.11 1385.59C445.11 1377.08 539.83 1370.17 656.5 1370.17Z" />
		<path id="Path 42" class="shp0" d="M768.94 1321.72C768.94 1321.72 774.81 1362.09 776.41 1368.18C787.89 1370.02 813.8 1377.74 815.69 1382.37C817.57 1387 784.62 1385.24 766.73 1385.32C748.83 1385.39 734.73 1385.91 731.56 1385.04C728.38 1384.18 717.91 1336.11 716.18 1321.95C714.44 1307.79 749.88 1301.47 749.88 1301.47L768.94 1321.72ZM564.36 1313.67C564.36 1313.67 560.33 1347.78 558.47 1363.23C557.75 1369.15 592.87 1373.03 593.1 1381.42C593.21 1385.46 539.61 1384.58 527.61 1384.41C520.4 1384.31 508.04 1384.97 508.32 1380.06C508.61 1375.15 512.45 1339.18 513.85 1330.38C515.25 1321.58 515.8 1312.67 515.8 1312.67L564.36 1313.67Z" />
		<path id="Path 43" class="shp1" d="M769.54 1322.28L748.24 1322.56L706.08 1323.14C699.08 1306.54 693.34 1249.78 683.62 1218.32C673.9 1186.88 674.02 1126.14 667.54 1083.4C662.14 1047.74 648.8 1017.08 644.5 1007.86C644.38 1007.62 644.26 1007.34 644.14 1007.08C643.52 1005.74 643.16 1005.04 643.16 1005.04C643.16 1005.04 641.06 1016.06 637.56 1032.68C636.68 1036.88 635.7 1041.44 634.66 1046.26C632.96 1054.06 630.54 1066.36 627.64 1081.04C627.64 1081.04 627.64 1081.06 627.62 1081.08C621.6 1111.4 613.46 1151.76 605.02 1183.48C597.86 1210.4 588.34 1273.54 587.52 1290.54C586.7 1307.54 583.46 1321.84 583.46 1321.84C579.2 1321.92 552.24 1320.96 533.44 1320.24C522.9 1319.86 514.94 1319.54 514.94 1319.54C514.94 1319.54 516.26 1308.96 515.72 1284.16C515.16 1259.34 519.5 1230.92 527.6 1191.4C535.7 1151.88 549.86 1041.66 555.42 995.96C560.96 950.26 568.48 892.54 568.48 892.54C576.12 864.98 662 855.92 699.2 859.64C709.38 860.66 715.92 862.62 716.2 865.44C717.5 878.52 722.18 931.6 726.04 958.14C729.9 984.66 734.56 1017.28 739.26 1054C743.96 1090.74 756.52 1206.8 758.42 1236.34C760.3 1265.88 769.54 1322.28 769.54 1322.28Z" />
		<path id="Path 44" class="shp11" d="M769.54 1322.28L748.24 1322.56C728.6 1283.34 727.28 1220.3 720.6 1178.76C712.9 1130.98 703.5 1061.24 690.32 999.16C677.14 937.08 688.5 903.64 688.5 903.64L699.2 859.64C709.38 860.66 715.92 862.62 716.2 865.44C717.5 878.52 722.18 931.6 726.04 958.14C729.9 984.66 734.56 1017.28 739.26 1054C743.96 1090.74 756.52 1206.8 758.42 1236.34C760.3 1265.88 769.54 1322.28 769.54 1322.28ZM627.62 1081.08C621.6 1111.4 613.46 1151.76 605.02 1183.48C597.86 1210.4 588.34 1273.54 587.52 1290.54C586.7 1307.54 583.46 1321.84 583.46 1321.84C579.2 1321.92 552.24 1320.96 533.44 1320.24C537.44 1288.3 549.52 1206.44 572.68 1163C594.56 1121.98 616.22 1099.64 627.62 1081.08ZM644.14 1007.08C643.52 1005.74 643.16 1005.04 643.16 1005.04C643.16 1005.04 641.06 1016.06 637.56 1032.68C629.46 1020.46 611.18 991.68 609.2 977.84C606.66 960.02 618.56 946.26 626.26 965.16C632.08 979.44 640.44 998.6 644.14 1007.08Z" />
		<path id="Path 45" class="shp9" d="M740.88 670.14C740.74 671.12 740.48 672.1 740.1 673.08C734.76 687.32 706.6 701.96 706.6 701.96L683.36 691.74C683.36 691.74 684.3 684.26 684.2 679.06C684.16 676.48 685.2 670.4 686.3 664.9C687.4 659.24 688.54 654.2 688.54 654.2L727.9 624.06C727.9 624.06 742.96 655.08 740.88 670.14ZM740.1 673.08C734.76 687.32 706.6 701.96 706.6 701.96L683.36 691.74C683.36 691.74 684.3 684.26 684.2 679.06C684.16 676.48 685.2 670.4 686.3 664.9C693.42 662.58 702.48 661.38 702.48 661.38C702.48 661.38 705.44 669.8 714.42 666.6C723.1 663.48 730.7 672.32 740.1 673.08Z" />
		<path id="Path 46" class="shp1" d="M705.9 614.07C705.9 614.07 722.12 592.84 732.05 605.47C740.72 616.5 728.31 631.34 722.64 636.3C722.64 636.3 721.97 645.63 719.01 647.31C716.05 648.98 709.19 649.42 707.94 658.29C706.69 667.16 714.51 666.14 714.51 666.14L709.75 678.29L684.04 679.05C684.04 679.05 683.69 667.76 675.2 653.55C666.71 639.35 668.95 627.77 678.39 620.38C687.84 613 705.9 614.07 705.9 614.07Z" />
		<path id="Path 47" class="shp17" d="M602.08 768.28C597.8 780.16 583.04 826.5 583.04 826.5C583.04 826.5 546.8 818 541.96 797.58C541.5 795.6 541.46 793.46 541.84 791.24L541.84 791.22C549.76 776.92 565.18 785.8 571.4 780.44C577.68 775.02 591.02 754.48 598.78 752.64C606.56 750.8 606.36 756.4 602.08 768.28Z" />
		<path id="Path 48" class="shp18" d="M738.26 794.22C737.02 799.26 736 804.56 735.04 810.32C730.36 838.64 722.6 892.14 716.48 899.66C713.02 903.94 692.82 904.12 673.86 903.2C678.36 892.62 686.2 875.76 694.34 865.3C706.94 849.18 687.3 846.62 720.6 811.06C727.72 803.44 733.54 798.02 738.26 794.22Z" />
		<path id="Path 49" class="shp2" d="M1387.36 175.18C1388.07 174.48 1388.07 173.34 1387.36 172.64C1386.66 171.93 1385.52 171.93 1384.82 172.64C1384.11 173.34 1384.11 174.48 1384.82 175.18C1385.52 175.89 1386.66 175.89 1387.36 175.18Z" />
		<path id="Path 50" fill-rule="evenodd" class="shp2" d="M1323.3 223.38L1323.3 134.76C1323.3 134.03 1323.74 133.37 1324.42 133.1C1325.09 132.82 1325.86 132.97 1326.38 133.49L1415 222.1C1415.51 222.62 1415.67 223.39 1415.39 224.07C1415.11 224.74 1414.45 225.18 1413.72 225.18L1325.1 225.18C1324.11 225.18 1323.3 224.37 1323.3 223.38ZM1326.91 221.58L1409.38 221.58L1394.89 207.09L1391.07 210.91C1390.36 211.62 1389.22 211.62 1388.52 210.91C1387.82 210.21 1387.82 209.07 1388.52 208.36L1392.34 204.54L1384.7 196.9L1380.88 200.72C1380.17 201.43 1379.03 201.43 1378.33 200.72C1377.63 200.02 1377.63 198.88 1378.33 198.18L1382.15 194.35L1374.51 186.71L1370.69 190.53C1369.98 191.24 1368.84 191.24 1368.14 190.53C1367.44 189.83 1367.44 188.69 1368.14 187.99L1371.96 184.16L1364.32 176.52L1360.5 180.34C1359.79 181.05 1358.66 181.05 1357.95 180.34C1357.25 179.64 1357.25 178.5 1357.95 177.8L1361.77 173.97L1354.13 166.33L1350.31 170.15C1349.61 170.86 1348.46 170.86 1347.76 170.15C1347.06 169.45 1347.06 168.31 1347.76 167.61L1351.58 163.79L1343.94 156.14L1340.12 159.96C1339.42 160.67 1338.27 160.67 1337.57 159.96C1336.87 159.26 1336.87 158.12 1337.57 157.42L1341.39 153.6L1326.91 139.11L1326.91 221.58Z" />
		<path id="Path 51" fill-rule="evenodd" class="shp2" d="M1378.07 206.61C1378.59 207.13 1378.74 207.9 1378.47 208.58C1378.19 209.25 1377.53 209.69 1376.8 209.69L1340.59 209.69C1339.6 209.69 1338.79 208.88 1338.79 207.89L1338.79 171.68C1338.79 170.95 1339.23 170.3 1339.91 170.02C1340.58 169.74 1341.35 169.89 1341.87 170.41L1378.07 206.61ZM1372.45 206.09L1342.4 176.03L1342.4 206.09L1372.45 206.09ZM1372.08 162.45C1371.37 161.74 1371.37 160.6 1372.08 159.9C1372.78 159.2 1373.92 159.2 1374.62 159.9L1382.27 167.54C1382.97 168.25 1382.97 169.39 1382.27 170.09C1381.56 170.79 1380.42 170.79 1379.72 170.09L1372.08 162.45Z" />
		<path id="Path 52" fill-rule="evenodd" class="shp2" d="M1350.21 150.61L1345.12 135.33C1344.9 134.68 1345.07 133.97 1345.55 133.49C1346.03 133 1346.75 132.84 1347.39 133.05L1362.68 138.14C1362.94 138.23 1363.19 138.38 1363.38 138.58L1413.94 189.14C1416.05 191.25 1416.05 194.68 1413.94 196.78L1408.85 201.88C1406.74 203.99 1403.32 203.99 1401.21 201.88L1350.65 151.32C1350.45 151.12 1350.3 150.88 1350.21 150.61ZM1355.66 151.23L1392.21 187.78L1399.85 180.14L1363.3 143.59L1355.66 151.23ZM1402.4 182.69L1394.76 190.33L1397.3 192.88L1404.94 185.24L1402.4 182.69ZM1407.49 187.78L1399.85 195.43L1403.75 199.33C1404.46 200.03 1405.6 200.03 1406.3 199.33L1411.39 194.23C1412.1 193.53 1412.1 192.39 1411.39 191.69L1407.49 187.78ZM1349.67 137.61L1353.3 148.5L1360.56 141.24L1349.67 137.61Z" />
		<text id="Lorem ipsum islu  dolo ipsum " style="transform: matrix(1,0,0,1,120.693,240.138)" >
			<tspan x="0" y="24" class="txt19">Lorem ipsum islu </tspan>
			<tspan x="0" y="50.88" class="txt20">dolo ipsum</tspan>
		</text>
		<text id="Lorem ipsum islu  dolo ipsum  " style="transform: matrix(1,0,0,1,120.693,380.13)" >
			<tspan x="0" y="24" class="txt20">Lorem ipsum islu </tspan>
			<tspan x="0" y="50.88" class="txt20">dolo ipsum </tspan>
		</text>
		<path id="Path 55" class="shp9" d="M846.53 518.2C846.53 518.2 857.34 460.93 871.57 453.53C885.79 446.12 868.65 483.53 868.65 483.53C868.65 483.53 881.7 487.24 882.67 503.6C883.65 519.97 874.89 524.94 874.89 524.94L846.53 518.2Z" />
		<path id="Path 56" class="shp7" d="M880.68 520.08C880.68 520.08 876.4 544.66 869.4 571.7C864.56 590.42 858.42 610.32 851.52 624.06C834.64 657.66 799.4 704.82 772.7 734.94C751.46 758.92 743.14 774.56 738.26 794.22C737.02 799.26 736 804.56 735.04 810.32C730.36 838.64 722.6 892.14 716.48 899.66C713.02 903.94 692.82 904.12 673.86 903.2L673.84 903.2C659.48 902.48 645.84 901.12 640.76 900.42C629.02 898.82 577.88 899.04 568.2 893.88C568.2 893.88 578.44 838.92 582.62 827.52C582.9 826.9 583.04 826.5 583.04 826.5C583.04 826.5 546.8 818 541.96 797.58C541.5 795.6 541.46 793.46 541.84 791.24L541.84 791.22C545.22 770.48 581.66 740.26 601.84 721.96C624.22 701.68 645.48 683.28 680.82 684.7C701.66 685.54 714.08 685.82 722.34 684.5C728.1 683.58 731.86 681.88 735.04 679.06C742.8 672.18 786.38 635.3 798.8 624.06C811.22 612.82 830.02 564.2 837.66 543.3C845.3 522.38 846.5 515.94 846.5 515.94C846.5 515.94 870.52 508.96 880.68 520.08Z" />
		<path id="Path 57" class="shp18" d="M880.68 520.08C880.68 520.08 876.4 544.66 869.4 571.7C856.96 574.68 840.58 584.38 825.7 614.4C805.68 654.8 745.16 713.54 728.38 701.96C718.84 695.38 719.76 688.88 722.34 684.5C728.1 683.58 731.86 681.88 735.04 679.06C742.8 672.18 786.38 635.3 798.8 624.06C811.22 612.82 830.02 564.2 837.66 543.3C845.3 522.38 846.5 515.94 846.5 515.94C846.5 515.94 870.52 508.96 880.68 520.08Z" />
		<path id="Path 58" class="shp2" d="M706.53 253.54C706.53 300.67 668.33 338.88 621.19 338.88C574.06 338.88 535.85 300.67 535.85 253.54C535.85 206.4 574.06 168.2 621.19 168.2C668.33 168.2 706.53 206.4 706.53 253.54Z" />
		<path id="Path 59" class="shp1" d="M695.53 237.66C696.23 236.96 696.23 235.82 695.53 235.11C694.82 234.41 693.68 234.41 692.98 235.11C692.28 235.82 692.28 236.96 692.98 237.66C693.68 238.36 694.82 238.36 695.53 237.66Z" />
		<path id="Path 60" fill-rule="evenodd" class="shp1" d="M631.47 285.85L631.47 197.24C631.47 196.51 631.91 195.85 632.58 195.57C633.25 195.29 634.03 195.45 634.54 195.96L723.16 284.58C723.68 285.1 723.83 285.87 723.55 286.54C723.27 287.22 722.62 287.66 721.89 287.66L633.27 287.66C632.27 287.66 631.47 286.85 631.47 285.85ZM635.07 284.05L717.54 284.05L703.05 269.57L699.23 273.39C698.53 274.09 697.39 274.09 696.68 273.39C695.98 272.68 695.98 271.54 696.68 270.84L700.5 267.02L692.86 259.38L689.04 263.2C688.34 263.9 687.2 263.9 686.49 263.2C685.79 262.5 685.79 261.35 686.49 260.65L690.32 256.83L682.67 249.19L678.85 253.01C678.15 253.71 677.01 253.71 676.3 253.01C675.6 252.3 675.6 251.16 676.3 250.46L680.13 246.64L672.48 239L668.66 242.82C667.96 243.52 666.82 243.52 666.12 242.82C665.41 242.12 665.41 240.97 666.12 240.27L669.94 236.45L662.29 228.81L658.47 232.63C657.77 233.33 656.63 233.33 655.93 232.63C655.22 231.93 655.22 230.79 655.93 230.08L659.75 226.26L652.11 218.62L648.28 222.44C647.58 223.14 646.44 223.14 645.74 222.44C645.03 221.74 645.03 220.6 645.74 219.89L649.56 216.07L635.07 201.58L635.07 284.05Z" />
		<path id="Path 61" fill-rule="evenodd" class="shp1" d="M686.24 269.09C686.75 269.61 686.91 270.38 686.63 271.05C686.35 271.73 685.69 272.17 684.96 272.17L648.76 272.17C647.76 272.17 646.96 271.36 646.96 270.36L646.96 234.16C646.96 233.43 647.4 232.77 648.07 232.49C648.74 232.22 649.52 232.37 650.03 232.89L686.24 269.09ZM680.62 268.56L650.56 238.51L650.56 268.56L680.62 268.56ZM680.24 224.92C679.54 224.22 679.54 223.08 680.24 222.38C680.95 221.67 682.09 221.67 682.79 222.38L690.43 230.02C691.14 230.72 691.14 231.86 690.43 232.57C689.73 233.27 688.59 233.27 687.89 232.57L680.24 224.92Z" />
		<path id="Path 62" fill-rule="evenodd" class="shp1" d="M658.37 213.09L653.28 197.8C653.07 197.16 653.23 196.44 653.72 195.96C654.2 195.48 654.91 195.31 655.56 195.53L670.84 200.62C671.11 200.71 671.35 200.86 671.55 201.06L722.11 251.61C724.21 253.72 724.21 257.15 722.11 259.26L717.01 264.35C714.9 266.46 711.48 266.46 709.37 264.35L658.81 213.79C658.61 213.59 658.46 213.35 658.37 213.09ZM663.82 213.71L700.37 250.26L708.01 242.62L671.47 206.07L663.82 213.71ZM710.56 245.17L702.92 252.81L705.47 255.35L713.11 247.71L710.56 245.17ZM715.66 250.26L708.01 257.9L711.92 261.8C712.62 262.51 713.76 262.51 714.47 261.8L719.56 256.71C720.26 256.01 720.26 254.86 719.56 254.16L715.66 250.26ZM657.84 200.08L661.47 210.97L668.73 203.71L657.84 200.08Z" />
		<text id="LOREM IPSUM " style="transform: matrix(1,0,0,1,574.859,334.516)" >
			<tspan x="0" y="0" class="txt21">LOREM IPSUM</tspan>
		</text>
		<path id="Path 64" class="shp1" d="M1006.53 253.54C1006.53 300.67 968.33 338.88 921.19 338.88C874.06 338.88 835.85 300.67 835.85 253.54C835.85 206.4 874.06 168.2 921.19 168.2C968.33 168.2 1006.53 206.4 1006.53 253.54Z" />
		<path id="Path 65" class="shp2" d="M995.53 237.66C996.23 236.96 996.23 235.82 995.53 235.11C994.82 234.41 993.68 234.41 992.98 235.11C992.28 235.82 992.28 236.96 992.98 237.66C993.68 238.36 994.82 238.36 995.53 237.66Z" />
		<path id="Path 66" fill-rule="evenodd" class="shp2" d="M931.47 285.85L931.47 197.24C931.47 196.51 931.91 195.85 932.58 195.57C933.25 195.29 934.03 195.45 934.54 195.96L1023.16 284.58C1023.68 285.1 1023.83 285.87 1023.55 286.54C1023.27 287.22 1022.62 287.66 1021.89 287.66L933.27 287.66C932.27 287.66 931.47 286.85 931.47 285.85ZM935.07 284.05L1017.54 284.05L1003.05 269.57L999.23 273.39C998.53 274.09 997.39 274.09 996.68 273.39C995.98 272.68 995.98 271.54 996.68 270.84L1000.5 267.02L992.86 259.38L989.04 263.2C988.34 263.9 987.2 263.9 986.49 263.2C985.79 262.5 985.79 261.35 986.49 260.65L990.32 256.83L982.67 249.19L978.85 253.01C978.15 253.71 977.01 253.71 976.3 253.01C975.6 252.3 975.6 251.16 976.3 250.46L980.13 246.64L972.48 239L968.66 242.82C967.96 243.52 966.82 243.52 966.12 242.82C965.41 242.12 965.41 240.97 966.12 240.27L969.94 236.45L962.29 228.81L958.47 232.63C957.77 233.33 956.63 233.33 955.93 232.63C955.22 231.93 955.22 230.79 955.93 230.08L959.75 226.26L952.11 218.62L948.28 222.44C947.58 223.14 946.44 223.14 945.74 222.44C945.03 221.74 945.03 220.6 945.74 219.89L949.56 216.07L935.07 201.58L935.07 284.05Z" />
		<path id="Path 67" fill-rule="evenodd" class="shp2" d="M986.24 269.09C986.75 269.61 986.91 270.38 986.63 271.05C986.35 271.73 985.69 272.17 984.96 272.17L948.76 272.17C947.76 272.17 946.96 271.36 946.96 270.36L946.96 234.16C946.96 233.43 947.4 232.77 948.07 232.49C948.74 232.22 949.52 232.37 950.03 232.89L986.24 269.09ZM980.62 268.56L950.56 238.51L950.56 268.56L980.62 268.56ZM980.24 224.92C979.54 224.22 979.54 223.08 980.24 222.38C980.95 221.67 982.09 221.67 982.79 222.38L990.43 230.02C991.14 230.72 991.14 231.86 990.43 232.57C989.73 233.27 988.59 233.27 987.89 232.57L980.24 224.92Z" />
		<path id="Path 68" fill-rule="evenodd" class="shp2" d="M958.37 213.09L953.28 197.8C953.07 197.16 953.23 196.44 953.72 195.96C954.2 195.48 954.91 195.31 955.56 195.53L970.84 200.62C971.11 200.71 971.35 200.86 971.55 201.06L1022.11 251.61C1024.21 253.72 1024.21 257.15 1022.11 259.26L1017.01 264.35C1014.9 266.46 1011.48 266.46 1009.37 264.35L958.81 213.79C958.61 213.59 958.46 213.35 958.37 213.09ZM963.82 213.71L1000.37 250.26L1008.01 242.62L971.47 206.07L963.82 213.71ZM1010.56 245.17L1002.92 252.81L1005.47 255.35L1013.11 247.71L1010.56 245.17ZM1015.66 250.26L1008.01 257.9L1011.92 261.8C1012.62 262.51 1013.76 262.51 1014.47 261.8L1019.56 256.71C1020.26 256.01 1020.26 254.86 1019.56 254.16L1015.66 250.26ZM957.84 200.08L961.47 210.97L968.73 203.71L957.84 200.08Z" />
		<text id="LOREM IPSUM " style="transform: matrix(1,0,0,1,874.857,334.516)" >
			<tspan x="0" y="0" class="txt22">LOREM IPSUM</tspan>
		</text>
		<path id="Path 70" class="shp2" d="M706.53 493.54C706.53 540.67 668.33 578.88 621.19 578.88C574.06 578.88 535.85 540.67 535.85 493.54C535.85 446.4 574.06 408.2 621.19 408.2C668.33 408.2 706.53 446.4 706.53 493.54Z" />
		<path id="Path 71" class="shp1" d="M695.53 477.66C696.23 476.96 696.23 475.82 695.53 475.11C694.82 474.41 693.68 474.41 692.98 475.11C692.28 475.82 692.28 476.96 692.98 477.66C693.68 478.36 694.82 478.36 695.53 477.66Z" />
		<path id="Path 72" fill-rule="evenodd" class="shp1" d="M631.47 525.85L631.47 437.24C631.47 436.51 631.91 435.85 632.58 435.57C633.25 435.29 634.03 435.45 634.54 435.96L723.16 524.58C723.68 525.1 723.83 525.87 723.55 526.54C723.27 527.22 722.62 527.66 721.89 527.66L633.27 527.66C632.27 527.66 631.47 526.85 631.47 525.85ZM635.07 524.05L717.54 524.05L703.05 509.57L699.23 513.39C698.53 514.09 697.39 514.09 696.68 513.39C695.98 512.68 695.98 511.54 696.68 510.84L700.5 507.02L692.86 499.38L689.04 503.2C688.34 503.9 687.2 503.9 686.49 503.2C685.79 502.5 685.79 501.35 686.49 500.65L690.32 496.83L682.67 489.19L678.85 493.01C678.15 493.71 677.01 493.71 676.3 493.01C675.6 492.3 675.6 491.16 676.3 490.46L680.13 486.64L672.48 479L668.66 482.82C667.96 483.52 666.82 483.52 666.12 482.82C665.41 482.12 665.41 480.97 666.12 480.27L669.94 476.45L662.29 468.81L658.47 472.63C657.77 473.33 656.63 473.33 655.93 472.63C655.22 471.93 655.22 470.79 655.93 470.08L659.75 466.26L652.11 458.62L648.28 462.44C647.58 463.14 646.44 463.14 645.74 462.44C645.03 461.74 645.03 460.6 645.74 459.89L649.56 456.07L635.07 441.58L635.07 524.05Z" />
		<path id="Path 73" fill-rule="evenodd" class="shp1" d="M686.24 509.09C686.75 509.61 686.91 510.38 686.63 511.05C686.35 511.73 685.69 512.17 684.96 512.17L648.76 512.17C647.76 512.17 646.96 511.36 646.96 510.36L646.96 474.16C646.96 473.43 647.4 472.77 648.07 472.49C648.74 472.22 649.52 472.37 650.03 472.89L686.24 509.09ZM680.62 508.56L650.56 478.51L650.56 508.56L680.62 508.56ZM680.24 464.92C679.54 464.22 679.54 463.08 680.24 462.38C680.95 461.67 682.09 461.67 682.79 462.38L690.43 470.02C691.14 470.72 691.14 471.86 690.43 472.57C689.73 473.27 688.59 473.27 687.89 472.57L680.24 464.92Z" />
		<path id="Path 74" fill-rule="evenodd" class="shp1" d="M658.37 453.09L653.28 437.8C653.07 437.16 653.23 436.44 653.72 435.96C654.2 435.48 654.91 435.31 655.56 435.53L670.84 440.62C671.11 440.71 671.35 440.86 671.55 441.06L722.11 491.62C724.21 493.72 724.21 497.15 722.11 499.26L717.01 504.35C714.9 506.46 711.48 506.46 709.37 504.35L658.81 453.79C658.61 453.59 658.46 453.35 658.37 453.09ZM663.82 453.71L700.37 490.26L708.01 482.62L671.47 446.07L663.82 453.71ZM710.56 485.17L702.92 492.81L705.47 495.35L713.11 487.71L710.56 485.17ZM715.66 490.26L708.01 497.9L711.92 501.8C712.62 502.51 713.76 502.51 714.47 501.8L719.56 496.71C720.26 496.01 720.26 494.86 719.56 494.16L715.66 490.26ZM657.84 440.08L661.47 450.97L668.73 443.71L657.84 440.08Z" />
		<text id="LOREM IPSUM " style="transform: matrix(1,0,0,1,574.859,574.516)" >
			<tspan x="0" y="0" class="txt21">LOREM IPSUM</tspan>
		</text>
		<text id="LOREM IPSUM " style="transform: matrix(1,0,0,1,874.851,574.516)" >
			<tspan x="0" y="0" class="txt21">LOREM IPSUM</tspan>
		</text>
		<text id="LOREM IPSUM " style="transform: matrix(1,0,0,1,1173.331,574.516)" >
			<tspan x="0" y="0" class="txt21">LOREM IPSUM</tspan>
		</text>
		<text id="LOREM IPSUM " style="transform: matrix(1,0,0,1,1174.843,334.528)" >
			<tspan x="0" y="0" class="txt21">LOREM IPSUM</tspan>
		</text>
		<path id="Path 79" class="shp16" d="M1071.96 779.14C1071.96 779.14 1067.84 769.35 1068.29 760.47C1068.75 751.58 1059.3 749.32 1055.86 757.05C1055.86 757.05 1046.64 738.78 1032.42 747.16C1018.2 755.54 1021.46 769.48 1029.02 776.26C1036.57 783.04 1042.35 801.07 1044.43 803.7C1046.51 806.33 1071.96 779.14 1071.96 779.14ZM1204.2 762.17C1204.2 762.17 1274.33 776.13 1259.7 709.98C1245.08 643.84 1188.91 644.5 1188.91 644.5C1188.91 644.5 1160.99 644.84 1175.28 697.35C1189.57 749.87 1204.2 762.17 1204.2 762.17Z" />
		<path id="Path 80" class="shp15" d="M1201.29 718.29C1201.29 718.29 1203.31 715.4 1206.64 712.28C1209.96 709.16 1215.48 700.62 1217.22 698.51C1218.97 696.4 1224.22 694.49 1226.93 691.81C1229.64 689.12 1237.92 724.16 1237.13 736.12C1236.34 748.08 1208.93 753.03 1197.3 742.13C1185.67 731.23 1185.66 721.96 1201.29 718.29Z" />
		<path id="Path 81" class="shp1" d="M1358.06 926.46C1357.7 950.4 1354.06 978.72 1354.06 978.72C1354.06 978.72 1337.24 987.34 1317.06 980.68C1317.06 980.68 1316.28 952.04 1314.32 928.52L1314.32 928.5C1314.26 927.8 1314.2 927.1 1314.14 926.42C1301.02 930.12 1278.52 934.58 1258.26 935.66C1251.46 936.04 1244.92 936.02 1239.06 935.48C1210.82 932.84 1183.06 919.42 1183.06 919.42C1185.52 912.38 1187.42 901.26 1188.72 891.2C1188.88 890.08 1189 888.98 1189.14 887.9C1171.38 915.34 1146.64 912.02 1122.74 893.9C1100.48 877.02 1072.42 840.42 1056.6 818.5C1049.04 808.02 1044.26 800.9 1044.26 800.9C1047.84 773.42 1073.26 776.98 1073.26 776.98C1081.88 781.72 1087.18 789.86 1095.9 801.78C1104.62 813.7 1114.96 820.1 1122.7 826.68C1130.42 833.24 1148.6 848.1 1148.6 848.1L1148.6 847.78C1148.8 837.48 1149.42 828 1150.3 819.34C1154.84 774.5 1166.58 751.78 1166.58 751.78L1172.12 736.18L1185.78 727.78L1186.36 724.76L1190.48 724.88L1192.58 723.58C1192.58 723.58 1192.88 724.04 1193.4 724.96L1198.64 725.1C1201.66 748.46 1233.92 731.32 1233.92 731.32L1241.46 730.02L1258.78 730.34L1259.18 730.8L1265.56 729.28C1265.56 729.28 1298.92 728.58 1325.66 781.12C1351.66 832.24 1358.74 879.58 1358.06 926.46Z" />
		<path id="Path 82" class="shp11" d="M1188.72 891.2C1188.88 890.08 1189 888.98 1189.14 887.9C1171.38 915.34 1146.64 912.02 1122.74 893.9C1100.48 877.02 1072.42 840.42 1056.6 818.5C1064.62 814.88 1077.9 814.64 1095.1 834.6C1124.44 868.62 1141.34 884.36 1155.7 886.58C1170.04 888.82 1175.12 872.62 1148.86 848.02C1148.78 847.94 1148.68 847.86 1148.6 847.78C1148.8 837.48 1149.42 828 1150.3 819.34C1154.22 821.36 1161.36 821.72 1164.46 801.16C1168.86 772 1183.46 761.16 1183 770.7C1182.54 780.26 1172.88 791.74 1176.78 807.82C1180.66 823.92 1193.54 839 1193.58 852.7C1193.62 863.92 1195.06 876.98 1188.72 891.2ZM1314.44 928.22L1314.32 928.5C1314.26 927.8 1314.2 927.1 1314.14 926.42C1301.02 930.12 1278.52 934.58 1258.26 935.66C1260.44 923.92 1264.86 899.42 1265.94 887.84C1269.96 845.28 1290.42 847.84 1280.38 815.48C1270.36 783.1 1267.86 793.02 1264.56 783.96C1261.24 774.9 1266.98 783.9 1271.98 789.62C1276.98 795.36 1292.1 804.92 1302.52 855.28C1312.96 905.62 1314.44 928.22 1314.44 928.22ZM1198.03 843.21C1198.03 843.21 1202.44 846.78 1209.5 852.07C1216.56 857.36 1208.79 860.19 1202.7 856.69C1196.61 853.18 1195.18 844.49 1198.03 843.21ZM1226.97 850.03C1225.72 849.51 1229.48 858.11 1234.92 857.09C1240.36 856.08 1232.52 852.34 1226.97 850.03Z" />
		<path id="Path 83" class="shp1" d="M1185.48 651.61C1185.48 651.61 1182.92 663.15 1183.59 671.07C1184.04 676.48 1176.92 680.55 1177.79 685.27C1178.66 690 1183.46 689.4 1183.46 689.4C1183.46 689.4 1182.36 701.41 1185.67 709.71C1188.98 718.02 1201.5 716.25 1206.16 712.24C1206.16 712.24 1210.51 723.07 1191.87 730.18C1175.67 736.37 1168.37 748.44 1166.58 751.78C1166.58 751.78 1154.53 741.99 1152.13 734.29C1152.13 734.29 1168.43 727.34 1169.31 714.04C1170.18 700.75 1161.95 681.19 1161.77 666.47C1161.59 651.74 1172.61 639.19 1185.56 641.53C1185.56 641.53 1196.78 623.09 1224.39 628.04C1252 632.98 1261.63 671.24 1267.17 687.32C1272.7 703.41 1288.25 714.02 1295.46 714.83C1295.46 714.83 1288.98 726.95 1270.45 735.79C1251.93 744.62 1234.94 746.96 1228.24 743.68C1228.24 743.68 1229.32 711.61 1221.73 681.66C1221.73 681.66 1214.09 673.43 1206.83 661.4C1206.83 661.4 1191.81 659.32 1185.48 651.61Z" />
	</g>
</svg>